<svg version="1" xmlns="http://www.w3.org/2000/svg" width="933.333" height="933.333" viewBox="0 0 700.000000 700.000000"><path d="M54.6 24c-.1.3-.2 15.2-.2 33.3.1 18-.1 32.8-.4 32.8-.3.1-12 .2-26 .3l-25.5.1v561h25.7c16.5 0 25.8.4 25.9 1 .1.5.3 5.7.4 11.5.1 5.8.3 10.9.4 11.5.1.7 27.7.9 80.8.9 44.5-.1 81-.2 81.3-.3.3-.1.5-5.3.5-11.7-.1-7.1.3-11.8.9-12.2.6-.4 17.5-.7 37.6-.8 20.1-.1 37.1-.2 37.8-.3.9-.1 1.2-34.5 1.2-168.4 0-103.8.4-170.5 1-174.2.5-3.3 2.8-9.6 4.9-14.1 13.5-27.3 45.4-38.2 73.1-25.1 8.2 3.9 19.3 14.8 23.8 23.3 7 13.5 6.6.2 6.6 188.6l.1 169.8H481v25.5h162.5l.5-12.5.5-12.5H698v-71c.2-273.8 0-488.7-.4-489.3-.2-.4-12-.7-26.3-.6-14.2 0-26.2-.3-26.8-.7-.6-.5-1-12.6-.9-33.3 0-17.9-.2-32.6-.5-32.7-.3-.1-36.8-.2-80.9-.3-51.5 0-80.6.3-81 .9-.3.5-.6 15.6-.7 33.5v32.5H349.3c-131.3.1-131.3.1-131.3-2-.1-1.1-.1-16.1-.1-33.3 0-17.1-.4-31.2-.7-31.3-2.6-.4-162.4-.3-162.6.1zm149.1 324c.1 170.8 0 311.4-.2 312.6-.4 2-.5 2-67.7 2l-67.3-.1-.2-312.6-.1-312.5h67.6l67.7.1.2 310.5zm426.1 1.9l-.3 312.6-67.5.1h-67.6l.2-312c0-171.7.2-312.4.3-312.7 0-.3 30.5-.5 67.6-.5H630l-.2 312.5zm-575.6-244c.2.9.4 120.8.3 266.6v265l-19.3.2-19.2.2v-22.2V104.3h18.9c16.7-.1 19 .1 19.3 1.6zm426.4 117.9c0 79.4-.3 119.5-1 119.9-.6.4-8.3.7-17.3.7l-16.3.1-.1-15.5c-.2-24.2-1.1-31.9-6-46.9-4.2-13-10.3-22-22.3-33.1-20-18.5-41.3-27.2-67.1-27.3-33.5-.2-61.1 14.8-80.5 43.5-6.2 9.3-8.8 15.2-11.9 27.5-2.7 10.8-3 14.3-3 34L255 344h-37.5l.1-119.3c.1-65.5.2-119.5.3-119.8 0-.4 59.2-.6 131.4-.5l131.2.1.1 119.3zM683.5 105c.4.6.7 319.4.5 523.6v9.1h-20c-19.6 0-20 0-20.1-2.1 0-1.2-.1-121.2-.2-266.7l-.2-264.6h19.8c10.8 0 20 .3 20.2.7zM366.6 237.4c19.8 4.1 36.2 14.5 51.9 33.1 3.1 3.8 7.2 12.2 9.5 20 1.7 5.6 2.4 9 3.5 17.5.7 5.1.7 328.2 0 328.8-1 1-12.5 1-13.1 0-.3-.5-.6-73.7-.6-162.8.1-175.3.3-167.8-5.3-181.9-5.9-14.6-18-27.7-32.5-35.1-11-5.6-29.4-8-42.5-5.5-9.5 1.8-12.2 2.7-20.6 7.1-14.3 7.6-25.9 21.3-31.7 37.9-3.6 10.2-3.6 10.4-3.7 177.5v163.5h-13v-164c.1-131.1.3-165.3 1.4-170.5 2.5-12.5 5.9-21.4 11.1-28.9 15.5-22.6 36.3-35.7 60-37.8 3.6-.3 6.6-.6 6.7-.8.7-.5 12.7.7 18.9 1.9zM253.3 358.3c.9.3 1.2 33.6 1.1 138.8-.1 76.1-.2 138.9-.3 139.6-.1.8-5.2 1.1-18.3 1l-18.3-.2-.1-139c0-76.5.3-139.5.7-140 .7-1 32.7-1.2 35.2-.2zm227.3 139.1c0 76.8-.2 139.7-.5 139.7-.3.1-8.1.2-17.3.3l-16.8.1V358.1l4.8-.3c2.6-.2 10.3-.2 17.2-.2l12.5.2.1 139.6z"/></svg>